<svg xmlns="http://www.w3.org/2000/svg" xmlns:xlink="http://www.w3.org/1999/xlink"><symbol id="arrow-right" viewBox="0 0 24 24">
<path fill-rule="evenodd" clip-rule="evenodd" d="M15.0848 7.17863C15.1516 7.11169 15.2309 7.05859 15.3182 7.02235C15.4055 6.98612 15.4991 6.96747 15.5937 6.96747C15.6882 6.96747 15.7818 6.98612 15.8692 7.02235C15.9565 7.05859 16.0358 7.11169 16.1026 7.17863L20.4151 11.4911C20.482 11.5579 20.5351 11.6372 20.5713 11.7245C20.6076 11.8119 20.6262 11.9055 20.6262 12C20.6262 12.0945 20.6076 12.1882 20.5713 12.2755C20.5351 12.3628 20.482 12.4421 20.4151 12.5089L16.1026 16.8214C15.9676 16.9563 15.7846 17.0322 15.5937 17.0322C15.4028 17.0322 15.2198 16.9563 15.0848 16.8214C14.9499 16.6864 14.874 16.5034 14.874 16.3125C14.874 16.1216 14.9499 15.9386 15.0848 15.8036L18.8899 12L15.0848 8.19638C15.0179 8.12961 14.9648 8.0503 14.9285 7.96298C14.8923 7.87566 14.8737 7.78204 14.8737 7.6875C14.8737 7.59296 14.8923 7.49935 14.9285 7.41203C14.9648 7.32471 15.0179 7.24539 15.0848 7.17863Z" fill="#A89365"/>
<path fill-rule="evenodd" clip-rule="evenodd" d="M3.375 12C3.375 11.8094 3.45073 11.6266 3.58552 11.4918C3.72031 11.357 3.90313 11.2812 4.09375 11.2812H19.1875C19.3781 11.2812 19.5609 11.357 19.6957 11.4918C19.8305 11.6266 19.9062 11.8094 19.9062 12C19.9062 12.1906 19.8305 12.3734 19.6957 12.5082C19.5609 12.643 19.3781 12.7188 19.1875 12.7188H4.09375C3.90313 12.7188 3.72031 12.643 3.58552 12.5082C3.45073 12.3734 3.375 12.1906 3.375 12Z" fill="#A89365"/>
</symbol></svg>